<svg width="280" height="62" viewBox="0 0 280 62" fill="none" xmlns="http://www.w3.org/2000/svg">
<g clip-path="url(#clip0_3_22)">
<path d="M6.61111 39.3836C6.41667 39.1887 6.22222 38.9937 6.02778 38.7987C5.83333 38.6038 5.63889 38.6038 5.25 38.4088C5.05556 38.2138 4.86111 38.0189 4.66667 37.8239C4.47222 37.6289 4.47222 37.239 4.47222 36.849C4.47222 36.6541 4.47222 36.0692 4.66667 35.4843L7.77778 26.1258H19.6389C20.0278 27.1006 20.2222 28.0755 20.6111 29.2453C21 30.2201 21.1944 31.195 21.5833 32.1698C21.9722 33.1446 22.1667 33.9245 22.3611 34.7044C22.5556 35.4843 22.5556 36.0692 22.5556 36.6541C22.5556 37.434 22.3611 38.0189 21.9722 38.4088C21.5833 38.7987 21 38.9937 20.4167 39.1887V39.5786H30.9167C30.7222 39.3836 30.3333 39.1887 30.1389 38.9937C29.75 38.7987 29.5556 38.4088 29.1667 38.2138C28.7778 37.8239 28.5833 37.434 28.1944 37.044C28 36.6541 27.6111 36.0692 27.4167 35.2893L16.7222 0.19496C16.5278 0.584897 16.3333 0.974835 16.1389 1.36477C15.75 1.75471 15.5556 2.14465 15.1667 2.72955C14.7778 3.11949 14.3889 3.50943 14 3.89936C13.6111 4.2893 13.2222 4.48427 13.0278 4.67924L13.4167 6.04402L3.69444 35.6792C3.30556 37.044 2.72222 38.0189 1.94444 38.6038C1.16667 38.9937 0.583333 39.3836 0 39.5786C0 39.7736 0.388889 39.9685 0.972222 39.9685C1.55556 39.9685 2.33333 39.9685 3.11111 39.9685H5.25C6.02778 39.3836 6.41667 39.3836 6.61111 39.3836ZM14 6.82389C14.3889 7.9937 14.7778 9.35848 15.1667 10.9182C15.5556 12.478 16.1389 14.0377 16.5278 15.5975C16.9167 17.1572 17.5 18.9119 18.0833 20.4717C18.6667 22.0314 19.0556 23.5912 19.4444 25.1509H8.16667L14 6.82389ZM45.5 35.0943V23.0063H50.1667C51.1389 23.0063 51.9167 23.2013 52.5 23.7862C53.0833 24.1761 53.6667 24.956 54.0556 26.1258C54.4444 27.1006 54.8333 28.4654 55.2222 30.0252C55.6111 31.5849 56 33.5346 56.5833 35.8742C56.5833 36.0692 56.7778 36.4591 56.7778 36.6541C56.7778 37.239 56.5833 37.6289 56.1944 38.2138C55.8056 38.6038 55.4167 38.9937 54.8333 39.1887V39.5786H64.9444V39.1887C64.1667 38.9937 63.5833 38.4088 62.8056 37.434C62.0278 36.4591 61.6389 35.4843 61.25 34.1195C60.8611 32.5597 60.4722 31.195 60.0833 30.0252C59.6944 28.8553 59.3056 27.6855 58.7222 26.7107C58.1389 25.7358 57.5556 24.956 56.9722 24.3711C56.1944 23.7862 55.4167 23.2013 54.25 22.8113C55.4167 22.6163 56.5833 22.4214 57.75 21.8365C58.9167 21.2516 59.6944 20.6667 60.4722 19.6918C61.25 18.717 61.8333 17.7421 62.2222 16.3773C62.6111 15.0126 62.8056 13.4528 62.8056 11.6981C62.8056 9.74842 62.6111 7.9937 62.0278 6.62892C61.4444 5.26414 60.6667 4.09433 59.6944 3.11949C58.7222 2.14465 57.5556 1.55974 56.3889 0.974835C55.0278 0.584897 53.6667 0.19496 52.1111 0.19496H38.6944V0.584897C39.4722 0.779866 39.8611 1.1698 40.25 1.75471C40.6389 2.33961 40.8333 3.31446 40.8333 4.48427V34.7044C40.8333 35.8742 40.6389 36.8491 40.25 37.434C39.8611 38.0189 39.2778 38.4088 38.6944 38.6038V38.9937H47.8333V38.6038C47.0556 38.4088 46.6667 38.0189 46.2778 37.434C45.6944 37.239 45.5 36.2641 45.5 35.0943ZM45.5 1.36477H52.1111C52.6944 1.36477 53.4722 1.55974 54.0556 1.94968C54.6389 2.33961 55.4167 2.92452 55.8056 3.70439C56.3889 4.48427 56.7778 5.65408 57.1667 7.01886C57.5556 8.38364 57.75 10.1384 57.75 12.283C57.75 14.2327 57.5556 15.9874 57.1667 17.1572C56.7778 18.522 56.3889 19.4968 55.8056 20.2767C55.2222 21.0566 54.6389 21.6415 54.0556 22.0314C53.4722 22.4214 52.8889 22.6163 52.3056 22.6163H45.3056V1.36477H45.5ZM87.8889 35.0943V1.36477C89.25 1.36477 90.6111 1.36477 91.7778 1.36477C92.9444 1.36477 94.1111 1.75471 95.0833 2.14465C96.0556 2.72955 96.8333 3.50943 97.6111 4.67924C98.3889 5.84905 98.9722 7.60377 99.3611 9.94339C99.5555 9.94339 99.5555 9.74842 99.75 9.74842C99.9444 9.74842 99.9444 9.55345 100.139 9.55345C99.75 7.79873 99.5555 6.23899 99.3611 5.06917C99.1667 3.89936 98.9722 2.92452 98.7778 1.94968C98.5833 0.974835 98.5833 0.584897 98.5833 0.584897H73.1111C73.1111 0.584897 73.1111 1.1698 72.9167 2.14465C72.7222 3.11949 72.5278 4.09433 72.3333 5.26414C72.1389 6.62892 71.75 8.18867 71.5555 9.74842C71.75 9.74842 71.75 9.94339 71.9444 9.94339C72.1389 9.94339 72.1389 10.1384 72.3333 10.1384C72.7222 7.9937 73.3056 6.23899 73.8889 5.06917C74.6667 3.89936 75.4444 3.11949 76.4167 2.53458C77.3889 1.94968 78.3611 1.75471 79.7222 1.55974C80.8889 1.55974 82.25 1.36477 83.8055 1.36477V35.0943C83.8055 36.2641 83.6111 37.239 83.2222 37.8239C82.8333 38.4088 82.25 38.7987 81.4722 38.9937V39.3836H90.6111V38.7987C89.8333 38.7987 89.25 38.4088 88.8611 37.8239C88.0833 37.239 87.8889 36.2641 87.8889 35.0943ZM131.25 34.3145C131.444 32.9497 131.833 31 132.222 28.4654C132.222 28.4654 132.028 28.2704 131.833 28.2704C131.639 28.2704 131.639 28.0755 131.444 28.0755C131.25 28.8553 131.056 30.0252 130.667 31.195C130.278 32.3648 129.694 33.5346 128.917 34.7044C128.139 35.8742 127.167 36.6541 126 37.434C124.833 38.2138 123.278 38.6038 121.528 38.6038H114.333V19.4968H120.167C120.75 19.4968 121.139 19.6918 121.722 19.8868C122.111 20.0818 122.5 20.4717 122.889 20.8616C123.278 21.2516 123.472 21.6415 123.667 22.0314C123.861 22.4214 124.056 22.8113 124.056 23.2013H124.444V14.6226H124.056C124.056 15.0126 123.861 15.4025 123.667 15.9874C123.472 16.3774 123.278 16.7673 122.889 17.1572C122.5 17.5472 122.111 17.9371 121.722 18.1321C121.333 18.327 120.75 18.522 120.167 18.522H114.333V1.36477H121.528C123.278 1.36477 124.833 1.75471 125.806 2.53458C126.972 3.31446 127.75 4.09433 128.333 5.06917C128.917 6.04402 129.306 7.01886 129.5 7.9937C129.694 8.96854 129.889 9.74842 129.889 10.1384L130.278 9.94339C130.472 9.94339 130.472 9.74842 130.667 9.74842L128.917 0.584897H107.528V0.974835C108.306 1.1698 108.694 1.55974 109.083 2.14465C109.472 2.72955 109.667 3.70439 109.667 4.87421V35.0943C109.667 36.2641 109.472 37.239 109.083 37.8239C108.694 38.4088 108.111 38.7987 107.528 38.9937V39.3836H130.278C130.278 39.1887 130.278 38.9937 130.472 38.7987L131.25 34.3145ZM160.417 37.6289C161.389 36.849 162.167 35.8742 162.75 34.5094C163.333 33.3396 163.528 31.7799 163.528 30.0252C163.528 28.0755 163.139 26.3207 162.167 24.761C161.194 23.2013 160.222 21.8365 158.861 20.6667C157.5 19.4968 156.139 18.327 154.583 17.1572C153.028 16.1824 151.667 15.0126 150.306 14.0377C148.944 12.8679 147.778 11.8931 147 10.5283C146.028 9.35848 145.639 7.9937 145.639 6.43395C145.639 5.65408 145.833 4.87421 146.028 4.2893C146.417 3.50943 146.806 2.92452 147.389 2.53458C147.972 1.94968 148.556 1.55974 149.139 1.1698C149.917 0.779866 150.5 0.779866 151.278 0.779866C152.444 0.779866 153.417 0.974835 154.778 1.55974C155.944 1.94968 157.111 2.92452 158.083 3.89936C159.056 5.06917 160.028 6.62892 160.611 8.57861C161.194 10.5283 161.583 12.8679 161.583 15.7924H162.361V0.974835H161.778C161.778 1.1698 161.778 1.55974 161.583 1.75471C161.389 2.14465 161.389 2.33961 161.194 2.72955C161 2.92452 160.806 3.31446 160.611 3.50943C160.417 3.70439 160.222 3.89936 159.833 3.89936C159.444 3.89936 159.056 3.70439 158.472 3.31446C158.083 2.92452 157.5 2.53458 156.722 2.14465C155.944 1.75471 155.167 1.1698 154.194 0.974835C153.222 0.584897 151.861 0.389929 150.306 0.389929C148.944 0.389929 147.778 0.584897 146.611 0.974835C145.444 1.36477 144.472 1.94968 143.5 2.72955C142.528 3.50943 141.944 4.48427 141.361 5.45911C140.778 6.43395 140.583 7.79873 140.583 8.96854C140.583 10.7233 140.972 12.283 141.944 13.6478C142.917 15.0126 143.889 16.1824 145.25 17.3522C146.611 18.522 147.972 19.6918 149.722 20.6667C151.278 21.6415 152.833 22.8113 154.194 23.9811C155.556 25.1509 156.722 26.5157 157.5 28.0755C158.472 29.6352 158.861 31.195 158.861 33.1446C158.861 34.1195 158.667 34.8994 158.278 35.6792C157.889 36.4591 157.5 37.044 156.917 37.6289C156.333 38.2138 155.75 38.6038 154.972 38.9937C154.194 39.3836 153.611 39.3836 152.833 39.3836C151.278 39.3836 149.722 39.1887 148.167 38.6038C146.611 38.0189 145.444 37.239 144.278 35.8742C143.111 34.7044 142.333 33.1446 141.75 31.195C141.167 29.2453 140.778 27.1006 140.778 24.566H140V39.3836H140.583C140.583 39.1887 140.583 38.7987 140.778 38.4088C140.972 38.0189 140.972 37.8239 141.167 37.434C141.361 37.239 141.556 36.849 141.75 36.6541C141.944 36.4591 142.333 36.4591 142.528 36.4591C142.917 36.4591 143.5 36.6541 144.083 37.044C144.667 37.434 145.25 37.8239 146.222 38.2138C147 38.6038 147.972 38.9937 149.139 39.3836C150.306 39.7736 151.667 39.9685 153.222 39.9685C154.389 39.9685 155.556 39.7736 156.917 39.3836C158.472 38.9937 159.444 38.4088 160.417 37.6289ZM177.528 39.3836C177.333 39.1887 177.139 38.9937 176.944 38.7987C176.75 38.6038 176.556 38.6038 176.167 38.4088C175.972 38.2138 175.778 38.0189 175.583 37.8239C175.389 37.6289 175.389 37.239 175.389 36.849C175.389 36.6541 175.389 36.0692 175.583 35.4843L178.694 26.1258H190.556C190.944 27.1006 191.139 28.0755 191.528 29.2453C191.917 30.2201 192.111 31.195 192.5 32.1698C192.889 33.1446 193.083 33.9245 193.278 34.7044C193.472 35.4843 193.472 36.0692 193.472 36.6541C193.472 37.434 193.278 38.0189 192.889 38.4088C192.5 38.7987 191.917 38.9937 191.333 39.1887V39.5786H201.833C201.639 39.3836 201.25 39.1887 201.056 38.9937C200.667 38.7987 200.472 38.4088 200.083 38.2138C199.694 37.8239 199.5 37.434 199.111 37.044C198.917 36.6541 198.528 36.0692 198.333 35.2893L187.639 0.19496C187.444 0.584897 187.25 0.974835 187.056 1.36477C186.667 1.75471 186.472 2.14465 186.083 2.72955C185.694 3.11949 185.306 3.50943 184.917 3.89936C184.528 4.2893 184.139 4.48427 183.944 4.67924L184.333 6.04402L174.611 35.6792C174.222 37.044 173.639 38.0189 172.861 38.6038C172.083 38.9937 171.5 39.3836 170.917 39.5786C170.917 39.7736 171.306 39.9685 171.889 39.9685C172.472 39.9685 173.25 39.9685 174.028 39.9685H176.167C176.944 39.3836 177.333 39.3836 177.528 39.3836ZM184.917 6.82389C185.306 7.9937 185.694 9.35848 186.083 10.9182C186.472 12.478 187.056 14.0377 187.444 15.5975C187.833 17.1572 188.417 18.9119 189 20.4717C189.583 22.0314 189.972 23.5912 190.361 25.1509H179.083L184.917 6.82389ZM212.528 35.0943V3.70439L234.889 39.3836H236.25V4.87421C236.25 3.70439 236.444 2.72955 236.833 2.14465C237.222 1.55974 237.806 1.1698 238.389 0.974835V0.584897H233.139V0.974835C233.722 1.1698 234.306 1.55974 234.694 2.14465C235.083 2.72955 235.278 3.70439 235.278 4.87421V32.5597L215.25 0.584897H209.417V0.974835C210.194 1.1698 210.583 1.55974 210.972 2.14465C211.361 2.72955 211.556 3.70439 211.556 4.87421V35.0943C211.556 36.2641 211.361 37.239 210.972 37.8239C210.583 38.4088 210 38.7987 209.417 38.9937V39.3836H214.861V38.9937C214.083 38.7987 213.694 38.4088 213.111 37.8239C212.722 37.239 212.528 36.2641 212.528 35.0943ZM274.167 35.0943C275.722 33.5346 276.889 31.3899 278.056 28.8553C279.028 26.3207 279.611 23.3962 279.611 19.8868C279.611 16.3774 279.028 13.4528 278.056 10.9182C277.083 8.38364 275.722 6.43395 274.167 4.67924C272.611 3.11949 270.861 1.75471 268.917 0.974835C266.972 0.19496 265.028 -0.194977 263.278 -0.194977C261.528 -0.194977 259.583 0.19496 257.639 0.974835C255.694 1.75471 253.944 2.92452 252.389 4.67924C250.833 6.23899 249.667 8.38364 248.5 10.9182C247.528 13.4528 246.944 16.3774 246.944 19.8868C246.944 23.3962 247.528 26.3207 248.5 28.8553C249.472 31.3899 250.833 33.5346 252.389 35.0943C253.944 36.6541 255.694 38.0189 257.639 38.7987C259.583 39.5786 261.528 39.9685 263.278 39.9685C265.222 39.9685 266.972 39.5786 268.917 38.7987C270.861 38.0189 272.611 36.849 274.167 35.0943ZM255.306 33.3396C254.139 31.5849 253.361 29.6352 252.778 27.2956C252.194 24.956 251.806 22.6163 251.806 20.0818C251.806 17.3522 252.194 14.8176 252.778 12.478C253.361 10.1384 254.333 8.18867 255.306 6.43395C256.472 4.67924 257.639 3.50943 259 2.53458C260.361 1.55974 261.722 1.1698 263.278 1.1698C264.833 1.1698 266.194 1.55974 267.556 2.53458C268.917 3.50943 270.083 4.87421 271.25 6.43395C272.417 8.18867 273.194 10.1384 273.778 12.478C274.361 14.8176 274.75 17.3522 274.75 20.0818C274.75 22.6163 274.361 25.1509 273.778 27.2956C273.194 29.6352 272.222 31.5849 271.25 33.3396C270.083 35.0943 268.917 36.4591 267.556 37.434C266.194 38.4088 264.639 38.9937 263.278 38.9937C261.722 38.9937 260.361 38.4088 259 37.434C257.639 36.4591 256.472 35.0943 255.306 33.3396Z" fill="#1D1D1B"/>
<path d="M77.1945 62C76.8056 62 76.2222 62 75.8333 61.805C75.4444 61.6101 75.0556 61.4151 74.8611 61.2201C74.4722 61.0252 74.2778 60.6352 74.0833 60.2453C73.8889 59.8554 73.8889 59.4654 73.8889 58.8805C73.8889 58.2956 73.8889 57.9057 74.0833 57.5157C74.2778 57.1258 74.4722 56.7359 74.8611 56.5409C75.25 56.3459 75.4444 55.956 75.8333 55.956C76.2222 55.761 76.6111 55.761 77.1945 55.761C77.5833 55.761 78.1667 55.761 78.5556 55.956C78.9445 56.151 79.3333 56.3459 79.5278 56.5409C79.9167 56.7359 80.1111 57.1258 80.3056 57.5157C80.5 57.9057 80.5 58.2956 80.5 58.8805C80.5 59.4654 80.5 59.8554 80.3056 60.2453C80.1111 60.6352 79.9167 61.0252 79.5278 61.2201C79.1389 61.4151 78.9445 61.805 78.5556 61.805C78.1667 61.805 77.5833 62 77.1945 62ZM77.1945 61.4151C77.5833 61.4151 77.9722 61.4151 78.1667 61.2201C78.5556 61.0252 78.75 60.8302 78.9444 60.6352C79.1389 60.4403 79.3333 60.0503 79.5278 59.8554C79.7222 59.6604 79.7222 59.2705 79.7222 58.8805C79.7222 58.4906 79.7222 58.1006 79.5278 57.9057C79.3333 57.5157 79.1389 57.3208 78.9444 57.1258C78.75 56.9308 78.3611 56.7359 78.1667 56.5409C77.7778 56.3459 77.5833 56.3459 77.1945 56.3459C76.8056 56.3459 76.4167 56.3459 76.2222 56.5409C75.8333 56.7359 75.6389 56.9308 75.4444 57.1258C75.25 57.3208 75.0556 57.7107 74.8611 57.9057C74.6667 58.2956 74.6667 58.4906 74.6667 58.8805C74.6667 59.2705 74.6667 59.6604 74.8611 59.8554C75.0556 60.2453 75.25 60.4403 75.4444 60.6352C75.6389 60.8302 76.0278 61.0252 76.2222 61.2201C76.4167 61.4151 76.8056 61.4151 77.1945 61.4151Z" fill="#1D1D1B"/>
<path d="M90.6111 62C90.2222 62 89.6389 62 89.25 61.805C88.8611 61.6101 88.4722 61.4151 88.2778 61.2201L88.4722 60.6352C88.6667 60.8302 89.0556 61.0252 89.4444 61.2201C89.8333 61.4151 90.2222 61.4151 90.6111 61.4151C91 61.4151 91.3889 61.4151 91.5833 61.2201C91.7778 61.0252 91.9722 61.0252 92.1667 60.8302C92.3611 60.6352 92.3611 60.4403 92.3611 60.2453C92.3611 60.0503 92.3611 59.8553 92.1667 59.6604C91.9722 59.4654 91.7778 59.4654 91.5833 59.2704C91.3889 59.2704 91.1944 59.0755 90.8056 59.0755C90.4167 59.0755 90.2222 58.8805 90.0278 58.8805C89.8333 58.8805 89.4444 58.6855 89.25 58.4906C89.0556 58.2956 88.8611 58.1006 88.6667 57.9057C88.4722 57.7107 88.4722 57.5157 88.4722 57.1258C88.4722 56.7358 88.4722 56.5409 88.6667 56.3459C88.8611 56.1509 89.0556 55.956 89.4444 55.761C89.8333 55.566 90.2222 55.566 90.8056 55.566C91.1944 55.566 91.5833 55.566 91.7778 55.761C91.9722 55.956 92.3611 55.956 92.75 56.1509L92.5556 56.7359C92.3611 56.5409 91.9722 56.3459 91.7778 56.3459C91.3889 56.3459 91.1944 56.1509 90.8056 56.1509C90.4167 56.1509 90.0278 56.1509 89.8333 56.3459C89.6389 56.5409 89.4444 56.5409 89.25 56.7359C89.0556 56.9308 89.0556 57.1258 89.0556 57.3208C89.0556 57.5157 89.0556 57.7107 89.25 57.9057C89.4444 58.1006 89.6389 58.1006 89.8333 58.2956C90.0278 58.2956 90.2222 58.4906 90.6111 58.4906C91 58.4906 91.1944 58.6855 91.3889 58.6855C91.5833 58.6855 91.9722 58.8805 92.1667 59.0755C92.3611 59.2704 92.5556 59.2704 92.75 59.6604C92.9444 59.8553 92.9444 60.0503 92.9444 60.4403C92.9444 60.8302 92.9444 61.0252 92.75 61.2201C92.5556 61.4151 92.3611 61.6101 91.9722 61.805C91.5833 62 91.1944 62 90.6111 62Z" fill="#1D1D1B"/>
<path d="M104.028 62C103.639 62 103.056 62 102.667 61.805C102.278 61.6101 101.889 61.4151 101.694 61.2201C101.306 61.0252 101.111 60.6352 100.917 60.2453C100.722 59.8554 100.722 59.4654 100.722 58.8805C100.722 58.2956 100.722 57.9057 100.917 57.5157C101.111 57.1258 101.306 56.7359 101.694 56.5409C102.083 56.3459 102.278 55.956 102.667 55.956C103.056 55.761 103.444 55.761 104.028 55.761C104.417 55.761 105 55.761 105.389 55.956C105.778 56.151 106.167 56.3459 106.361 56.7359L105.972 57.1258C105.778 56.9308 105.389 56.7359 105.194 56.5409C104.806 56.3459 104.611 56.3459 104.222 56.3459C103.833 56.3459 103.444 56.3459 103.25 56.5409C102.861 56.7359 102.667 56.9308 102.472 57.1258C102.278 57.3208 102.083 57.7107 101.889 57.9057C101.694 58.2956 101.694 58.4906 101.694 58.8805C101.694 59.2705 101.694 59.6604 101.889 59.8554C102.083 60.0503 102.278 60.4403 102.472 60.6352C102.667 60.8302 103.056 61.0252 103.25 61.2201C103.444 61.4151 103.833 61.4151 104.222 61.4151C104.611 61.4151 105 61.4151 105.194 61.2201C105.583 61.0252 105.778 60.8302 105.972 60.6352L106.361 61.0252C106.167 61.4151 105.778 61.6101 105.389 61.805C105 62 104.417 62 104.028 62Z" fill="#1D1D1B"/>
<path d="M113.556 62L116.472 55.761H117.056L119.972 62H119.194L116.472 56.151H116.667L113.944 62H113.556ZM114.722 60.2453L114.917 59.6604H118.611L118.806 60.2453H114.722Z" fill="#1D1D1B"/>
<path d="M127.944 62V55.761H130.278C130.861 55.761 131.25 55.761 131.639 55.956C132.028 56.151 132.222 56.3459 132.611 56.7359C133 57.1258 133 57.5157 133 57.9057C133 58.2956 132.806 58.6855 132.611 59.0755C132.417 59.4654 132.028 59.6604 131.639 59.8554C131.25 60.0503 130.861 60.0503 130.278 60.0503H128.333L128.722 59.6604V62H127.944ZM128.528 59.6604L128.139 59.2704H130.083C130.667 59.2704 131.25 59.0755 131.444 58.8805C131.639 58.6855 132.028 58.2956 132.028 57.7107C132.028 57.1258 131.833 56.7359 131.444 56.5409C131.056 56.3459 130.667 56.151 130.083 56.151H128.139L128.528 55.761V59.6604ZM132.222 62L130.667 59.6604H131.444L133 62H132.222Z" fill="#1D1D1B"/>
<path d="M150.5 62V55.761H152.833C153.417 55.761 153.806 55.761 154.194 55.956C154.583 56.151 154.778 56.3459 155.167 56.7359C155.556 57.1258 155.556 57.5157 155.556 57.9057C155.556 58.2956 155.361 58.6855 155.167 59.0755C154.972 59.4654 154.583 59.6604 154.194 59.8554C153.806 60.0503 153.417 60.0503 152.833 60.0503H150.889L151.278 59.6604V62H150.5ZM151.278 59.6604L150.889 59.2704H152.833C153.417 59.2704 154 59.0755 154.194 58.8805C154.389 58.6855 154.778 58.2956 154.778 57.7107C154.778 57.1258 154.583 56.7359 154.194 56.5409C153.806 56.3459 153.417 56.151 152.833 56.151H150.889L151.278 55.761V59.6604Z" fill="#1D1D1B"/>
<path d="M166.639 62C166.25 62 165.667 62 165.278 61.805C164.889 61.6101 164.5 61.4151 164.306 61.2201C164.111 61.0252 163.722 60.6352 163.528 60.2453C163.333 59.8554 163.333 59.4654 163.333 58.8805C163.333 58.2956 163.333 57.9057 163.528 57.5157C163.722 57.1258 163.917 56.7359 164.306 56.5409C164.694 56.3459 164.889 55.956 165.278 55.956C165.667 55.761 166.056 55.761 166.639 55.761C167.028 55.761 167.611 55.761 168 55.956C168.389 56.151 168.778 56.3459 168.972 56.5409C169.361 56.7359 169.556 57.1258 169.75 57.5157C169.944 57.9057 169.944 58.2956 169.944 58.8805C169.944 59.4654 169.944 59.8554 169.75 60.2453C169.556 60.6352 169.361 61.0252 168.972 61.2201C168.583 61.4151 168.389 61.805 168 61.805C167.611 62 167.222 62 166.639 62ZM166.639 61.4151C167.028 61.4151 167.417 61.4151 167.611 61.2201C168 61.0252 168.194 60.8302 168.389 60.6352C168.583 60.4403 168.778 60.0503 168.972 59.8554C169.167 59.4654 169.167 59.2705 169.167 58.8805C169.167 58.4906 169.167 58.1006 168.972 57.9057C168.778 57.5157 168.583 57.3208 168.389 57.1258C168.194 56.9308 167.806 56.7359 167.611 56.5409C167.222 56.3459 167.028 56.3459 166.639 56.3459C166.25 56.3459 165.861 56.3459 165.667 56.5409C165.278 56.7359 165.083 56.9308 164.889 57.1258C164.694 57.3208 164.5 57.7107 164.306 57.9057C164.111 58.2956 164.111 58.4906 164.111 58.8805C164.111 59.2705 164.111 59.6604 164.306 59.8554C164.5 60.2453 164.694 60.4403 164.889 60.6352C165.083 60.8302 165.472 61.0252 165.667 61.2201C165.861 61.4151 166.25 61.4151 166.639 61.4151Z" fill="#1D1D1B"/>
<path d="M178.306 62V55.761H180.639C181.222 55.761 181.611 55.761 182 55.956C182.389 56.151 182.583 56.3459 182.972 56.7359C183.361 57.1258 183.361 57.5157 183.361 57.9057C183.361 58.2956 183.167 58.6855 182.972 59.0755C182.778 59.4654 182.389 59.6604 182 59.8554C181.611 60.0503 181.222 60.0503 180.639 60.0503H178.694L179.083 59.6604V62H178.306ZM179.083 59.6604L178.694 59.2704H180.639C181.222 59.2704 181.806 59.0755 182 58.8805C182.194 58.6855 182.583 58.2956 182.583 57.7107C182.583 57.1258 182.389 56.7359 182 56.5409C181.611 56.3459 181.222 56.151 180.639 56.151H178.694L179.083 55.761V59.6604ZM182.778 62L181.222 59.6604H182L183.556 62H182.778Z" fill="#1D1D1B"/>
<path d="M192.889 62V56.3459H190.75V55.761H195.806V56.3459H193.667V62H192.889Z" fill="#1D1D1B"/>
<path d="M206.5 62C206.111 62 205.528 62 205.139 61.805C204.75 61.6101 204.361 61.4151 204.167 61.2201C203.972 61.0252 203.583 60.6352 203.389 60.2453C203.194 59.8554 203.194 59.4654 203.194 58.8805C203.194 58.2956 203.194 57.9057 203.389 57.5157C203.583 57.1258 203.778 56.7359 204.167 56.5409C204.556 56.3459 204.75 55.956 205.139 55.956C205.528 55.761 205.917 55.761 206.5 55.761C206.889 55.761 207.472 55.761 207.861 55.956C208.25 56.151 208.639 56.3459 208.833 56.5409C209.222 56.7359 209.417 57.1258 209.611 57.5157C209.806 57.9057 209.806 58.2956 209.806 58.8805C209.806 59.4654 209.806 59.8554 209.611 60.2453C209.417 60.6352 209.222 61.0252 208.833 61.2201C208.444 61.4151 208.25 61.805 207.861 61.805C207.278 62 206.889 62 206.5 62ZM206.5 61.4151C206.889 61.4151 207.278 61.4151 207.472 61.2201C207.861 61.0252 208.056 60.8302 208.25 60.6352C208.444 60.4403 208.639 60.0503 208.833 59.8554C209.028 59.4654 209.028 59.2705 209.028 58.8805C209.028 58.4906 209.028 58.1006 208.833 57.9057C208.639 57.5157 208.444 57.3208 208.25 57.1258C208.056 56.9308 207.667 56.7359 207.472 56.5409C207.083 56.3459 206.889 56.3459 206.5 56.3459C206.111 56.3459 205.722 56.3459 205.528 56.5409C205.139 56.7359 204.944 56.9308 204.75 57.1258C204.556 57.3208 204.361 57.7107 204.167 57.9057C203.972 58.2956 203.972 58.4906 203.972 58.8805C203.972 59.2705 203.972 59.6604 204.167 59.8554C204.361 60.2453 204.556 60.4403 204.75 60.6352C204.944 60.8302 205.333 61.0252 205.528 61.2201C205.722 61.4151 206.111 61.4151 206.5 61.4151Z" fill="#1D1D1B"/>
</g>
<defs>
<clipPath id="clip0_3_22">
<rect width="280" height="62" fill="white"/>
</clipPath>
</defs>
</svg>
